<svg xmlns="http://www.w3.org/2000/svg" width="920" height="460" viewBox="0 0 920 460">
<rect width="100%" height="100%" fill="#ffffff"/>
<text x="460.0" y="30" text-anchor="middle" font-family="Arial, sans-serif" font-size="22" font-weight="700">First-digit distance from Benford expectation</text>
<text x="460.0" y="52" text-anchor="middle" font-family="Arial, sans-serif" font-size="12" fill="#555">Screening statistic only; bounded exchange lot sizes can legitimately deviate from Benford</text>
<text x="18" y="222.0" text-anchor="middle" transform="rotate(-90 18 222.0)" font-family="Arial, sans-serif" font-size="13">L1 distance</text>
<line x1="76" y1="372.0" x2="892" y2="372.0" stroke="#e8e8e8"/>
<text x="68" y="376.0" text-anchor="end" font-family="Arial, sans-serif" font-size="11">0.00</text>
<line x1="76" y1="312.0" x2="892" y2="312.0" stroke="#e8e8e8"/>
<text x="68" y="316.0" text-anchor="end" font-family="Arial, sans-serif" font-size="11">0.20</text>
<line x1="76" y1="252.0" x2="892" y2="252.0" stroke="#e8e8e8"/>
<text x="68" y="256.0" text-anchor="end" font-family="Arial, sans-serif" font-size="11">0.40</text>
<line x1="76" y1="192.0" x2="892" y2="192.0" stroke="#e8e8e8"/>
<text x="68" y="196.0" text-anchor="end" font-family="Arial, sans-serif" font-size="11">0.60</text>
<line x1="76" y1="132.0" x2="892" y2="132.0" stroke="#e8e8e8"/>
<text x="68" y="136.0" text-anchor="end" font-family="Arial, sans-serif" font-size="11">0.80</text>
<line x1="76" y1="72.0" x2="892" y2="72.0" stroke="#e8e8e8"/>
<text x="68" y="76.0" text-anchor="end" font-family="Arial, sans-serif" font-size="11">1.00</text>
<line x1="76" y1="72" x2="76" y2="372" stroke="#333"/>
<line x1="76" y1="372" x2="892" y2="372" stroke="#333"/>
<text x="144.0" y="422" text-anchor="middle" font-family="Arial, sans-serif" font-size="11">BTCUSDT</text>
<rect x="110.0" y="243.7" width="55.8" height="128.3" fill="#8d3dae"/>
<text x="137.9" y="237.7" text-anchor="middle" font-family="Arial, sans-serif" font-size="10" fill="#333">42.8%</text>
<text x="280.0" y="422" text-anchor="middle" font-family="Arial, sans-serif" font-size="11">ETHUSDT</text>
<rect x="246.0" y="273.5" width="55.8" height="98.5" fill="#8d3dae"/>
<text x="273.9" y="267.5" text-anchor="middle" font-family="Arial, sans-serif" font-size="10" fill="#333">32.9%</text>
<text x="416.0" y="422" text-anchor="middle" font-family="Arial, sans-serif" font-size="11">DOGEUSDT</text>
<rect x="382.0" y="184.5" width="55.8" height="187.5" fill="#8d3dae"/>
<text x="409.9" y="178.5" text-anchor="middle" font-family="Arial, sans-serif" font-size="10" fill="#333">62.5%</text>
<text x="552.0" y="422" text-anchor="middle" font-family="Arial, sans-serif" font-size="11">TRXUSDT</text>
<rect x="518.0" y="72.0" width="55.8" height="300.0" fill="#8d3dae"/>
<text x="545.9" y="84.0" text-anchor="middle" font-family="Arial, sans-serif" font-size="10" fill="#333">1.00</text>
<text x="688.0" y="422" text-anchor="middle" font-family="Arial, sans-serif" font-size="11">SOLUSDT</text>
<rect x="654.0" y="336.6" width="55.8" height="35.4" fill="#8d3dae"/>
<text x="681.9" y="330.6" text-anchor="middle" font-family="Arial, sans-serif" font-size="10" fill="#333">11.8%</text>
<text x="824.0" y="422" text-anchor="middle" font-family="Arial, sans-serif" font-size="11">XRPUSDT</text>
<rect x="790.0" y="295.2" width="55.8" height="76.8" fill="#8d3dae"/>
<text x="817.9" y="289.2" text-anchor="middle" font-family="Arial, sans-serif" font-size="10" fill="#333">25.6%</text>
<rect x="76" y="436" width="14" height="14" fill="#8d3dae"/>
<text x="96" y="448" font-family="Arial, sans-serif" font-size="12">L1 distance</text>
</svg>