<svg xmlns="http://www.w3.org/2000/svg" width="920" height="460" viewBox="0 0 920 460">
<rect width="100%" height="100%" fill="#ffffff"/>
<text x="460.0" y="30" text-anchor="middle" font-family="Arial, sans-serif" font-size="22" font-weight="700">Most repeated exact trade sizes on HTX TRX/USDT</text>
<text x="460.0" y="52" text-anchor="middle" font-family="Arial, sans-serif" font-size="12" fill="#555">Top 10 exact sizes in the captured HTX TRX/USDT tape</text>
<text x="18" y="222.0" text-anchor="middle" transform="rotate(-90 18 222.0)" font-family="Arial, sans-serif" font-size="13">share of trades</text>
<line x1="76" y1="372.0" x2="892" y2="372.0" stroke="#e8e8e8"/>
<text x="68" y="376.0" text-anchor="end" font-family="Arial, sans-serif" font-size="11">0.00</text>
<line x1="76" y1="312.0" x2="892" y2="312.0" stroke="#e8e8e8"/>
<text x="68" y="316.0" text-anchor="end" font-family="Arial, sans-serif" font-size="11">0.02</text>
<line x1="76" y1="252.0" x2="892" y2="252.0" stroke="#e8e8e8"/>
<text x="68" y="256.0" text-anchor="end" font-family="Arial, sans-serif" font-size="11">0.05</text>
<line x1="76" y1="192.0" x2="892" y2="192.0" stroke="#e8e8e8"/>
<text x="68" y="196.0" text-anchor="end" font-family="Arial, sans-serif" font-size="11">0.07</text>
<line x1="76" y1="132.0" x2="892" y2="132.0" stroke="#e8e8e8"/>
<text x="68" y="136.0" text-anchor="end" font-family="Arial, sans-serif" font-size="11">0.10</text>
<line x1="76" y1="72.0" x2="892" y2="72.0" stroke="#e8e8e8"/>
<text x="68" y="76.0" text-anchor="end" font-family="Arial, sans-serif" font-size="11">0.12</text>
<line x1="76" y1="72" x2="76" y2="372" stroke="#333"/>
<line x1="76" y1="372" x2="892" y2="372" stroke="#333"/>
<text x="116.8" y="422" text-anchor="middle" font-family="Arial, sans-serif" font-size="11">8.42</text>
<rect x="96.4" y="72.0" width="33.5" height="300.0" fill="#17815f"/>
<text x="113.1" y="84.0" text-anchor="middle" font-family="Arial, sans-serif" font-size="10" fill="#333">12.4%</text>
<text x="198.4" y="422" text-anchor="middle" font-family="Arial, sans-serif" font-size="11">8.41</text>
<rect x="178.0" y="133.6" width="33.5" height="238.4" fill="#17815f"/>
<text x="194.7" y="127.6" text-anchor="middle" font-family="Arial, sans-serif" font-size="10" fill="#333">9.8%</text>
<text x="280.0" y="422" text-anchor="middle" font-family="Arial, sans-serif" font-size="11">8.43</text>
<rect x="259.6" y="138.2" width="33.5" height="233.8" fill="#17815f"/>
<text x="276.3" y="132.2" text-anchor="middle" font-family="Arial, sans-serif" font-size="10" fill="#333">9.6%</text>
<text x="361.6" y="422" text-anchor="middle" font-family="Arial, sans-serif" font-size="11">8.44</text>
<rect x="341.2" y="218.7" width="33.5" height="153.3" fill="#17815f"/>
<text x="357.9" y="212.7" text-anchor="middle" font-family="Arial, sans-serif" font-size="10" fill="#333">6.3%</text>
<text x="443.2" y="422" text-anchor="middle" font-family="Arial, sans-serif" font-size="11">2.8</text>
<rect x="422.8" y="250.8" width="33.5" height="121.2" fill="#17815f"/>
<text x="439.5" y="244.8" text-anchor="middle" font-family="Arial, sans-serif" font-size="10" fill="#333">5.0%</text>
<text x="524.8" y="422" text-anchor="middle" font-family="Arial, sans-serif" font-size="11">2.81</text>
<rect x="504.4" y="298.6" width="33.5" height="73.4" fill="#17815f"/>
<text x="521.1" y="292.6" text-anchor="middle" font-family="Arial, sans-serif" font-size="10" fill="#333">3.0%</text>
<text x="606.4" y="422" text-anchor="middle" font-family="Arial, sans-serif" font-size="11">8.4</text>
<rect x="586.0" y="346.5" width="33.5" height="25.5" fill="#17815f"/>
<text x="602.7" y="340.5" text-anchor="middle" font-family="Arial, sans-serif" font-size="10" fill="#333">1.1%</text>
<text x="688.0" y="422" text-anchor="middle" font-family="Arial, sans-serif" font-size="11">2841.56</text>
<rect x="667.6" y="347.8" width="33.5" height="24.2" fill="#17815f"/>
<text x="684.3" y="341.8" text-anchor="middle" font-family="Arial, sans-serif" font-size="10" fill="#333">1.0%</text>
<text x="769.6" y="422" text-anchor="middle" font-family="Arial, sans-serif" font-size="11">84.25</text>
<rect x="749.2" y="358.9" width="33.5" height="13.1" fill="#17815f"/>
<text x="765.9" y="352.9" text-anchor="middle" font-family="Arial, sans-serif" font-size="10" fill="#333">0.5%</text>
<text x="851.2" y="422" text-anchor="middle" font-family="Arial, sans-serif" font-size="11">8.45</text>
<rect x="830.8" y="358.9" width="33.5" height="13.1" fill="#17815f"/>
<text x="847.5" y="352.9" text-anchor="middle" font-family="Arial, sans-serif" font-size="10" fill="#333">0.5%</text>
<rect x="76" y="436" width="14" height="14" fill="#17815f"/>
<text x="96" y="448" font-family="Arial, sans-serif" font-size="12">share of TRX/USDT trades</text>
</svg>