<svg xmlns="http://www.w3.org/2000/svg" width="920" height="520" viewBox="0 0 920 520">
<rect width="100%" height="100%" fill="#ffffff"/>
<text x="78" y="30" font-family="Arial" font-size="20" font-weight="700">Top-two quantity concentration by market, 2026-06-11</text>
<text x="18" y="228.0" transform="rotate(-90 18 228.0)" font-family="Arial" font-size="13" fill="#344054">top-two quantity share</text>
<line x1="78" y1="402" x2="892" y2="402" stroke="#667085"/>
<line x1="78" y1="54" x2="78" y2="402" stroke="#667085"/>
<line x1="73" y1="402.00" x2="892" y2="402.00" stroke="#eaecf0"/>
<text x="68" y="406.00" text-anchor="end" font-family="Arial" font-size="12" fill="#475467">0%</text>
<line x1="73" y1="315.00" x2="892" y2="315.00" stroke="#eaecf0"/>
<text x="68" y="319.00" text-anchor="end" font-family="Arial" font-size="12" fill="#475467">8%</text>
<line x1="73" y1="228.00" x2="892" y2="228.00" stroke="#eaecf0"/>
<text x="68" y="232.00" text-anchor="end" font-family="Arial" font-size="12" fill="#475467">16%</text>
<line x1="73" y1="141.00" x2="892" y2="141.00" stroke="#eaecf0"/>
<text x="68" y="145.00" text-anchor="end" font-family="Arial" font-size="12" fill="#475467">23%</text>
<line x1="73" y1="54.00" x2="892" y2="54.00" stroke="#eaecf0"/>
<text x="68" y="58.00" text-anchor="end" font-family="Arial" font-size="12" fill="#475467">31%</text>
<rect x="78.00" y="54.00" width="158.00" height="348.00" fill="#9b5b2e"/>
<text x="157.00" y="418" text-anchor="end" transform="rotate(-45 157.00 418)" font-family="Arial" font-size="11" fill="#475467">CELRUSDT</text>
<rect x="242.00" y="392.83" width="158.00" height="9.17" fill="#9b5b2e"/>
<text x="321.00" y="418" text-anchor="end" transform="rotate(-45 321.00 418)" font-family="Arial" font-size="11" fill="#475467">GMXUSDT</text>
<rect x="406.00" y="313.38" width="158.00" height="88.62" fill="#9b5b2e"/>
<text x="485.00" y="418" text-anchor="end" transform="rotate(-45 485.00 418)" font-family="Arial" font-size="11" fill="#475467">FLOKIUSDT</text>
<rect x="570.00" y="377.49" width="158.00" height="24.51" fill="#9b5b2e"/>
<text x="649.00" y="418" text-anchor="end" transform="rotate(-45 649.00 418)" font-family="Arial" font-size="11" fill="#475467">DYDXUSDT</text>
<rect x="734.00" y="59.40" width="158.00" height="342.60" fill="#9b5b2e"/>
<text x="813.00" y="418" text-anchor="end" transform="rotate(-45 813.00 418)" font-family="Arial" font-size="11" fill="#475467">TUSDUSDT</text>
</svg>
