<svg xmlns="http://www.w3.org/2000/svg" width="960" height="500" viewBox="0 0 960 500">
<rect width="100%" height="100%" fill="#ffffff"/>
<text x="480" y="30" text-anchor="middle" font-family="Arial" font-size="20" font-weight="700">Exact-quantity fingerprints across four spot markets</text>
<line x1="90" y1="405.0" x2="925" y2="405.0" stroke="#d1d5db" stroke-width="1"/>
<text x="78" y="409.0" text-anchor="end" font-family="Arial" font-size="12" fill="#374151">0%</text>
<line x1="90" y1="346.7" x2="925" y2="346.7" stroke="#d1d5db" stroke-width="1"/>
<text x="78" y="350.7" text-anchor="end" font-family="Arial" font-size="12" fill="#374151">10%</text>
<line x1="90" y1="288.3" x2="925" y2="288.3" stroke="#d1d5db" stroke-width="1"/>
<text x="78" y="292.3" text-anchor="end" font-family="Arial" font-size="12" fill="#374151">20%</text>
<line x1="90" y1="230.0" x2="925" y2="230.0" stroke="#d1d5db" stroke-width="1"/>
<text x="78" y="234.0" text-anchor="end" font-family="Arial" font-size="12" fill="#374151">30%</text>
<line x1="90" y1="171.7" x2="925" y2="171.7" stroke="#d1d5db" stroke-width="1"/>
<text x="78" y="175.7" text-anchor="end" font-family="Arial" font-size="12" fill="#374151">40%</text>
<line x1="90" y1="113.3" x2="925" y2="113.3" stroke="#d1d5db" stroke-width="1"/>
<text x="78" y="117.3" text-anchor="end" font-family="Arial" font-size="12" fill="#374151">50%</text>
<line x1="90" y1="55.0" x2="925" y2="55.0" stroke="#d1d5db" stroke-width="1"/>
<text x="78" y="59.0" text-anchor="end" font-family="Arial" font-size="12" fill="#374151">60%</text>
<rect x="165.2" y="289.9" width="58.5" height="115.1" fill="#0f766e"/>
<text x="194.4" y="283.9" text-anchor="middle" font-family="Arial" font-size="11" fill="#111827">19.7%</text>
<rect x="223.6" y="294.0" width="58.5" height="111.0" fill="#f59e0b"/>
<text x="252.8" y="288.0" text-anchor="middle" font-family="Arial" font-size="11" fill="#111827">19.0%</text>
<text x="194.4" y="433" text-anchor="middle" font-family="Arial" font-size="12" fill="#111827">BOMEUSDT</text>
<rect x="373.9" y="297.4" width="58.5" height="107.6" fill="#0f766e"/>
<text x="403.1" y="291.4" text-anchor="middle" font-family="Arial" font-size="11" fill="#111827">18.4%</text>
<rect x="432.4" y="296.8" width="58.5" height="108.2" fill="#f59e0b"/>
<text x="461.6" y="290.8" text-anchor="middle" font-family="Arial" font-size="11" fill="#111827">18.5%</text>
<text x="403.1" y="433" text-anchor="middle" font-family="Arial" font-size="12" fill="#111827">BOMEUSDC</text>
<rect x="582.6" y="303.8" width="58.5" height="101.2" fill="#0f766e"/>
<text x="611.9" y="297.8" text-anchor="middle" font-family="Arial" font-size="11" fill="#111827">17.3%</text>
<rect x="641.1" y="400.1" width="58.5" height="4.9" fill="#f59e0b"/>
<text x="670.3" y="394.1" text-anchor="middle" font-family="Arial" font-size="11" fill="#111827">0.8%</text>
<text x="611.9" y="433" text-anchor="middle" font-family="Arial" font-size="12" fill="#111827">NEIROUSDT</text>
<rect x="791.4" y="103.1" width="58.5" height="301.9" fill="#0f766e"/>
<text x="820.6" y="97.1" text-anchor="middle" font-family="Arial" font-size="11" fill="#111827">51.8%</text>
<rect x="849.9" y="392.5" width="58.5" height="12.5" fill="#f59e0b"/>
<text x="879.1" y="386.5" text-anchor="middle" font-family="Arial" font-size="11" fill="#111827">2.1%</text>
<text x="820.6" y="433" text-anchor="middle" font-family="Arial" font-size="12" fill="#111827">NEIROUSDC</text>
<rect x="320" y="472" width="16" height="16" fill="#0f766e"/>
<text x="344" y="485" font-family="Arial" font-size="13" fill="#111827">200,000 tokens</text>
<rect x="540" y="472" width="16" height="16" fill="#f59e0b"/>
<text x="564" y="485" font-family="Arial" font-size="13" fill="#111827">14,748 tokens</text>
</svg>