<svg xmlns="http://www.w3.org/2000/svg" width="940" height="360" viewBox="0 0 940 360" role="img">
  <style>
    text { font-family: Inter, -apple-system, BlinkMacSystemFont, "Segoe UI", sans-serif; fill: #17202a; }
    .muted { fill: #5d6d7e; font-size: 12px; }
    .title { font-size: 18px; font-weight: 700; }
    .axis { stroke: #d6dbdf; stroke-width: 1; }
    .bar { fill: #2f6f9f; }
    .bar-alt { fill: #1f7a5a; }
    .warn { fill: #9b2f2f; }
  </style>
<text class="title" x="30" y="34">Three executor-creation receipts from one attacker EOA</text>
  <text class="muted" x="30" y="55">Blue bars show receipt log count; green bars show gas used, normalized separately.</text>
  <line class="axis" x1="90" y1="278" x2="850" y2="278" />
  <rect class="bar" x="90" y="81.84615384615387" width="72" height="196.15384615384613" />
  <rect class="bar-alt" x="178" y="78" width="72" height="200" />
  <text x="90" y="306">attack-1</text>
  <text class="muted" x="90" y="324">block 20061319</text>
  <text class="muted" x="90" y="342">561 logs</text>
<rect class="bar" x="330" y="78" width="72" height="200" />
  <rect class="bar-alt" x="418" y="85.39304835438733" width="72" height="192.60695164561267" />
  <text x="330" y="306">attack-2</text>
  <text class="muted" x="330" y="324">block 20061322</text>
  <text class="muted" x="330" y="342">572 logs</text>
<rect class="bar" x="570" y="90.23776223776224" width="72" height="187.76223776223776" />
  <rect class="bar-alt" x="658" y="82.77304426327282" width="72" height="195.22695573672718" />
  <text x="570" y="306">attack-3</text>
  <text class="muted" x="570" y="324">block 20061352</text>
  <text class="muted" x="570" y="342">537 logs</text>
  <rect class="bar" x="706" y="30" width="14" height="14" />
  <text class="muted" x="728" y="42">logs</text>
  <rect class="bar-alt" x="776" y="30" width="14" height="14" />
  <text class="muted" x="798" y="42">gas used</text>
</svg>
