<svg xmlns="http://www.w3.org/2000/svg" width="920" height="520" viewBox="0 0 920 520">
<rect width="100%" height="100%" fill="#ffffff"/>
<text x="78" y="30" font-family="Arial" font-size="20" font-weight="700">NOT/USDT exact-lot persistence</text>
<text x="18" y="228.0" transform="rotate(-90 18 228.0)" font-family="Arial" font-size="13" fill="#344054">Share of aggregate trades</text>
<line x1="78" y1="402" x2="892" y2="402" stroke="#667085"/>
<line x1="78" y1="54" x2="78" y2="402" stroke="#667085"/>
<line x1="73" y1="402.00" x2="892" y2="402.00" stroke="#eaecf0"/>
<text x="68" y="406.00" text-anchor="end" font-family="Arial" font-size="12" fill="#475467">0%</text>
<line x1="73" y1="315.00" x2="892" y2="315.00" stroke="#eaecf0"/>
<text x="68" y="319.00" text-anchor="end" font-family="Arial" font-size="12" fill="#475467">13%</text>
<line x1="73" y1="228.00" x2="892" y2="228.00" stroke="#eaecf0"/>
<text x="68" y="232.00" text-anchor="end" font-family="Arial" font-size="12" fill="#475467">27%</text>
<line x1="73" y1="141.00" x2="892" y2="141.00" stroke="#eaecf0"/>
<text x="68" y="145.00" text-anchor="end" font-family="Arial" font-size="12" fill="#475467">40%</text>
<line x1="73" y1="54.00" x2="892" y2="54.00" stroke="#eaecf0"/>
<text x="68" y="58.00" text-anchor="end" font-family="Arial" font-size="12" fill="#475467">53%</text>
<rect x="78.00" y="139.84" width="199.00" height="262.16" fill="#287d57"/>
<text x="177.50" y="418" text-anchor="end" transform="rotate(-45 177.50 418)" font-family="Arial" font-size="11" fill="#475467">2026-06-08</text>
<rect x="283.00" y="143.60" width="199.00" height="258.40" fill="#287d57"/>
<text x="382.50" y="418" text-anchor="end" transform="rotate(-45 382.50 418)" font-family="Arial" font-size="11" fill="#475467">2026-06-09</text>
<rect x="488.00" y="96.52" width="199.00" height="305.48" fill="#287d57"/>
<text x="587.50" y="418" text-anchor="end" transform="rotate(-45 587.50 418)" font-family="Arial" font-size="11" fill="#475467">2026-06-10</text>
<rect x="693.00" y="54.00" width="199.00" height="348.00" fill="#287d57"/>
<text x="792.50" y="418" text-anchor="end" transform="rotate(-45 792.50 418)" font-family="Arial" font-size="11" fill="#475467">2026-06-11</text>
</svg>
