<svg xmlns="http://www.w3.org/2000/svg" width="820" height="360" viewBox="0 0 820 360">
<rect width="100%" height="100%" fill="#ffffff"/>
<text x="44" y="28" font-family="Arial, sans-serif" font-size="18" font-weight="700">ETH-USD trades by second of minute</text>
<line x1="44" y1="312" x2="796" y2="312" stroke="#333"/>
<line x1="44" y1="46" x2="44" y2="312" stroke="#333"/>
<rect x="45.00" y="288.36" width="10.53" height="23.64" fill="#3b82f6"/>
<text x="45.00" y="340" font-family="Arial, sans-serif" font-size="10" transform="rotate(45 45.00,340)">0</text>
<rect x="57.53" y="270.62" width="10.53" height="41.38" fill="#3b82f6"/>
<rect x="70.07" y="46.00" width="10.53" height="266.00" fill="#3b82f6"/>
<rect x="82.60" y="300.18" width="10.53" height="11.82" fill="#3b82f6"/>
<rect x="95.13" y="264.71" width="10.53" height="47.29" fill="#3b82f6"/>
<rect x="107.67" y="276.53" width="10.53" height="35.47" fill="#3b82f6"/>
<text x="107.67" y="340" font-family="Arial, sans-serif" font-size="10" transform="rotate(45 107.67,340)">5</text>
<rect x="120.20" y="306.09" width="10.53" height="5.91" fill="#3b82f6"/>
<rect x="132.73" y="282.44" width="10.53" height="29.56" fill="#3b82f6"/>
<rect x="145.27" y="252.89" width="10.53" height="59.11" fill="#3b82f6"/>
<rect x="157.80" y="306.09" width="10.53" height="5.91" fill="#3b82f6"/>
<rect x="170.33" y="294.27" width="10.53" height="17.73" fill="#3b82f6"/>
<text x="170.33" y="340" font-family="Arial, sans-serif" font-size="10" transform="rotate(45 170.33,340)">10</text>
<rect x="182.87" y="258.80" width="10.53" height="53.20" fill="#3b82f6"/>
<rect x="195.40" y="276.53" width="10.53" height="35.47" fill="#3b82f6"/>
<rect x="207.93" y="288.36" width="10.53" height="23.64" fill="#3b82f6"/>
<rect x="220.47" y="235.16" width="10.53" height="76.84" fill="#3b82f6"/>
<rect x="233.00" y="258.80" width="10.53" height="53.20" fill="#3b82f6"/>
<text x="233.00" y="340" font-family="Arial, sans-serif" font-size="10" transform="rotate(45 233.00,340)">15</text>
<rect x="245.53" y="294.27" width="10.53" height="17.73" fill="#3b82f6"/>
<rect x="258.07" y="300.18" width="10.53" height="11.82" fill="#3b82f6"/>
<rect x="270.60" y="270.62" width="10.53" height="41.38" fill="#3b82f6"/>
<rect x="283.13" y="288.36" width="10.53" height="23.64" fill="#3b82f6"/>
<rect x="295.67" y="229.24" width="10.53" height="82.76" fill="#3b82f6"/>
<text x="295.67" y="340" font-family="Arial, sans-serif" font-size="10" transform="rotate(45 295.67,340)">20</text>
<rect x="308.20" y="276.53" width="10.53" height="35.47" fill="#3b82f6"/>
<rect x="320.73" y="217.42" width="10.53" height="94.58" fill="#3b82f6"/>
<rect x="333.27" y="294.27" width="10.53" height="17.73" fill="#3b82f6"/>
<rect x="345.80" y="258.80" width="10.53" height="53.20" fill="#3b82f6"/>
<rect x="358.33" y="258.80" width="10.53" height="53.20" fill="#3b82f6"/>
<text x="358.33" y="340" font-family="Arial, sans-serif" font-size="10" transform="rotate(45 358.33,340)">25</text>
<rect x="370.87" y="276.53" width="10.53" height="35.47" fill="#3b82f6"/>
<rect x="383.40" y="241.07" width="10.53" height="70.93" fill="#3b82f6"/>
<rect x="395.93" y="246.98" width="10.53" height="65.02" fill="#3b82f6"/>
<rect x="408.47" y="282.44" width="10.53" height="29.56" fill="#3b82f6"/>
<rect x="421.00" y="252.89" width="10.53" height="59.11" fill="#3b82f6"/>
<text x="421.00" y="340" font-family="Arial, sans-serif" font-size="10" transform="rotate(45 421.00,340)">30</text>
<rect x="433.53" y="294.27" width="10.53" height="17.73" fill="#3b82f6"/>
<rect x="446.07" y="282.44" width="10.53" height="29.56" fill="#3b82f6"/>
<rect x="458.60" y="252.89" width="10.53" height="59.11" fill="#3b82f6"/>
<rect x="471.13" y="300.18" width="10.53" height="11.82" fill="#3b82f6"/>
<rect x="483.67" y="276.53" width="10.53" height="35.47" fill="#3b82f6"/>
<text x="483.67" y="340" font-family="Arial, sans-serif" font-size="10" transform="rotate(45 483.67,340)">35</text>
<rect x="496.20" y="312.00" width="10.53" height="0.00" fill="#3b82f6"/>
<rect x="508.73" y="300.18" width="10.53" height="11.82" fill="#3b82f6"/>
<rect x="521.27" y="312.00" width="10.53" height="0.00" fill="#3b82f6"/>
<rect x="533.80" y="312.00" width="10.53" height="0.00" fill="#3b82f6"/>
<rect x="546.33" y="300.18" width="10.53" height="11.82" fill="#3b82f6"/>
<text x="546.33" y="340" font-family="Arial, sans-serif" font-size="10" transform="rotate(45 546.33,340)">40</text>
<rect x="558.87" y="306.09" width="10.53" height="5.91" fill="#3b82f6"/>
<rect x="571.40" y="288.36" width="10.53" height="23.64" fill="#3b82f6"/>
<rect x="583.93" y="294.27" width="10.53" height="17.73" fill="#3b82f6"/>
<rect x="596.47" y="300.18" width="10.53" height="11.82" fill="#3b82f6"/>
<rect x="609.00" y="300.18" width="10.53" height="11.82" fill="#3b82f6"/>
<text x="609.00" y="340" font-family="Arial, sans-serif" font-size="10" transform="rotate(45 609.00,340)">45</text>
<rect x="621.53" y="288.36" width="10.53" height="23.64" fill="#3b82f6"/>
<rect x="634.07" y="246.98" width="10.53" height="65.02" fill="#3b82f6"/>
<rect x="646.60" y="300.18" width="10.53" height="11.82" fill="#3b82f6"/>
<rect x="659.13" y="152.40" width="10.53" height="159.60" fill="#3b82f6"/>
<rect x="671.67" y="288.36" width="10.53" height="23.64" fill="#3b82f6"/>
<text x="671.67" y="340" font-family="Arial, sans-serif" font-size="10" transform="rotate(45 671.67,340)">50</text>
<rect x="684.20" y="276.53" width="10.53" height="35.47" fill="#3b82f6"/>
<rect x="696.73" y="99.20" width="10.53" height="212.80" fill="#3b82f6"/>
<rect x="709.27" y="46.00" width="10.53" height="266.00" fill="#3b82f6"/>
<rect x="721.80" y="223.33" width="10.53" height="88.67" fill="#3b82f6"/>
<rect x="734.33" y="300.18" width="10.53" height="11.82" fill="#3b82f6"/>
<text x="734.33" y="340" font-family="Arial, sans-serif" font-size="10" transform="rotate(45 734.33,340)">55</text>
<rect x="746.87" y="199.69" width="10.53" height="112.31" fill="#3b82f6"/>
<rect x="759.40" y="270.62" width="10.53" height="41.38" fill="#3b82f6"/>
<rect x="771.93" y="193.78" width="10.53" height="118.22" fill="#3b82f6"/>
<rect x="784.47" y="252.89" width="10.53" height="59.11" fill="#3b82f6"/>
<text x="8" y="58" font-family="Arial, sans-serif" font-size="11">max 45</text>
</svg>
