<svg xmlns="http://www.w3.org/2000/svg" width="920" height="440" viewBox="0 0 920 440" role="img" aria-label="USDC proceeds, collateral deposits, and liquidation">
  <rect width="920" height="440" fill="#ffffff" />
  <text x="72" y="26" font-family="Inter, Arial, sans-serif" font-size="20" font-weight="700" fill="#17202a">USDC proceeds, collateral deposits, and liquidation</text>
  <g font-family="Inter, Arial, sans-serif" font-size="12" fill="#5d6d7e">
    <g>
      <line x1="72" x2="750" y1="378.0" y2="378.0" stroke="#d6dbdf" />
      <text x="62" y="382.0" text-anchor="end">0</text>
    </g>
    <g>
      <line x1="72" x2="750" y1="294.5" y2="294.5" stroke="#d6dbdf" />
      <text x="62" y="298.5" text-anchor="end">18</text>
    </g>
    <g>
      <line x1="72" x2="750" y1="211.0" y2="211.0" stroke="#d6dbdf" />
      <text x="62" y="215.0" text-anchor="end">35</text>
    </g>
    <g>
      <line x1="72" x2="750" y1="127.5" y2="127.5" stroke="#d6dbdf" />
      <text x="62" y="131.5" text-anchor="end">53</text>
    </g>
    <g>
      <line x1="72" x2="750" y1="44.0" y2="44.0" stroke="#d6dbdf" />
      <text x="62" y="48.0" text-anchor="end">70</text>
    </g>
    <line x1="72" x2="72" y1="44" y2="378" stroke="#9aa5ad" />
    <line x1="72" x2="750" y1="378" y2="378" stroke="#9aa5ad" />
    <text x="72.0" y="406" text-anchor="middle">11-13 17:23</text>
    <text x="411.0" y="406" text-anchor="middle">11-18 05:46</text>
    <text x="750.0" y="406" text-anchor="middle">11-22 18:09</text>
    <text x="411" y="424" text-anchor="middle">UTC date and hour</text>
    <text transform="translate(18 211) rotate(-90)" text-anchor="middle">Cumulative USDC, millions</text>
  </g>
  <g>
    <polyline points="72.0,192.1 72.1,192.1 112.0,191.8 112.2,191.6 112.4,191.0 112.6,190.4 112.6,189.8 113.0,189.2 113.4,188.6 113.5,188.1 113.7,187.8 114.0,187.7 114.1,187.7 114.1,187.6 114.1,187.5 114.2,187.3 114.2,187.1 114.2,187.1 114.2,186.9 114.2,186.9 114.2,186.8 114.2,186.7 114.2,186.6 114.2,186.5 114.5,186.2 114.6,186.0 114.7,186.0 114.7,186.0 114.7,185.7 114.7,185.6 114.7,185.6 114.9,185.5 115.4,185.4 115.9,185.3 115.9,185.2 116.0,185.1 116.0,185.0 116.0,184.9 116.0,184.8 116.0,184.3 116.1,184.2 116.1,184.1 116.1,184.0 116.1,184.0 116.1,183.9 116.2,183.8 116.2,183.5 116.2,183.4 116.5,183.4 116.5,183.3 135.1,182.7 135.1,182.2 135.3,181.6 234.2,180.7 234.4,179.2 234.7,178.8 235.4,178.2 235.8,177.9 236.6,177.4 237.4,177.1 319.6,176.5 718.5,128.8 718.9,128.8 725.6,128.2 726.3,127.3 726.4,126.3 726.4,125.3 726.7,123.4 726.9,121.4 727.0,119.5 727.5,119.1 727.5,119.0 727.5,118.9 727.6,118.8 727.6,118.1 727.6,117.8 727.6,117.6 727.6,117.5 727.7,117.1 727.7,116.9 727.8,116.7 727.8,116.6 727.8,116.5 727.8,116.4 727.8,115.9 727.9,115.8 727.9,115.6 727.9,115.2 727.9,114.7 727.9,114.5 728.0,114.3 728.0,113.5 728.1,113.1 728.1,112.9 728.1,112.7 728.1,112.6 728.1,112.1 728.1,112.0 728.1,111.5 728.1,111.4 728.1,111.2 728.1,110.2 728.2,110.1 728.2,110.0 728.2,109.8 728.2,109.8 728.2,109.5 728.2,109.3 728.2,109.3 728.2,109.2 728.2,109.2 728.2,109.2 728.2,109.2 728.6,83.0 728.7,83.0 728.8,82.5 728.8,82.5 728.8,82.4 728.8,82.3 728.8,82.2 728.8,82.1 728.9,82.0 728.9,81.7 729.0,81.5 729.0,81.4 729.0,81.3 729.0,81.2 729.1,81.2 729.1,81.2 729.1,80.1 729.1,80.0 729.1,80.0 729.1,79.3 729.1,78.9 729.2,78.8 729.2,78.7 729.2,78.1 729.2,78.0 729.3,77.7 729.3,77.6 729.3,77.3 729.3,74.9 729.3,74.6 729.4,73.5 729.4,73.3 729.4,73.3 729.4,73.3 729.4,73.1 729.5,73.1 729.6,72.8 729.6,72.8 730.4,72.7 735.5,72.7 735.5,72.7 735.5,72.7 735.5,72.7 735.5,72.7 735.5,72.7 735.5,72.7 735.5,72.7 735.5,72.7 735.5,72.7 735.5,72.7 735.5,72.7 735.6,72.7 735.6,72.7 735.6,72.7 735.6,72.7 735.6,72.7 735.6,72.7 735.6,72.7 735.6,72.7 735.6,72.7 735.6,72.7 735.7,72.7 735.7,72.7 735.7,72.7 735.7,72.7 735.7,72.7 735.7,72.7 735.7,72.7 735.7,72.7 735.7,72.7 735.7,72.7 735.7,72.7 735.7,72.7 735.7,72.7 735.7,72.7 735.7,72.7 735.7,72.7 735.7,72.7 735.7,72.7 735.7,72.7 735.7,72.7 735.7,72.7 735.7,72.7 735.7,72.7 735.8,72.7 735.8,72.7 735.8,72.7 735.8,72.7 735.8,72.7 735.8,72.7 735.8,72.7 735.8,72.7 735.8,72.7 735.8,72.7 735.8,72.7 735.8,72.7 735.8,72.7 735.9,72.7 735.9,72.7 735.9,72.7 735.9,72.7 735.9,72.7 735.9,72.7 735.9,72.7 735.9,72.7 735.9,72.7 747.6,72.7 747.6,72.7 747.6,72.7 747.6,72.7 747.6,72.7 747.6,72.7 747.6,72.7 747.6,72.7 747.6,72.7 747.6,72.7 747.6,72.7 747.6,72.7 747.6,72.7 747.6,72.7 747.6,72.7 747.6,72.7 747.6,72.7 747.6,72.7 747.6,72.7 747.6,72.7 747.6,72.7 747.6,72.7 747.6,72.7 747.6,72.7 747.6,72.7 747.6,72.7 747.6,72.7 747.6,72.7 747.6,72.7 747.6,72.7 747.7,72.7 747.7,72.7 747.7,72.7 747.7,72.7 747.7,72.7 747.7,72.7 747.8,72.7 747.8,72.7 747.8,72.7 747.8,72.7 747.8,72.7 747.8,72.7 747.8,72.7 747.8,72.7 747.8,72.7 747.8,72.7 747.8,72.7 747.8,72.7 747.9,72.7 747.9,72.7 747.9,72.7 747.9,72.7 747.9,72.7 747.9,72.7 747.9,72.7 747.9,72.7 747.9,72.7 747.9,72.7 748.0,72.7 748.0,72.7 748.0,72.7 748.0,72.7 748.0,72.7 748.1,72.7 748.1,72.7 748.1,72.7 748.1,72.7 748.1,72.7 748.1,72.7 748.1,72.7 748.1,72.7 748.1,72.7 748.1,72.7 748.1,72.7 748.1,72.7 748.1,72.7 748.2,72.7 748.2,72.7 748.2,72.7 748.2,72.7 748.2,72.7 748.2,72.7 748.2,72.7 748.2,72.7 748.2,72.7 748.2,72.7 748.2,72.7 748.3,72.7 748.3,72.7 748.3,72.7 748.3,72.7 748.3,72.7 748.3,72.7 748.3,72.7 748.3,72.7 748.3,72.7 748.3,72.7 748.3,72.7 748.3,72.7 748.3,72.7 748.3,72.7 748.4,72.7 748.4,72.7 748.4,72.7 748.4,72.7 748.4,72.7 748.4,72.7 748.4,72.7 748.4,72.7 748.4,72.7 748.4,72.7 748.4,72.7 748.4,72.7 748.4,72.7 748.4,72.7 748.4,72.7 748.4,72.7 748.5,72.7 748.5,72.7 748.5,72.7 748.5,72.7 748.5,72.7 748.5,72.7 748.5,72.7 748.5,72.7 748.5,72.7 748.5,72.7 748.5,72.7 748.6,72.7 748.6,72.7 748.6,72.7 748.6,72.7 748.6,72.7 748.6,72.7 748.6,72.7 748.6,72.7 748.6,72.7 748.6,72.7 748.6,72.7 748.6,72.7 748.6,72.7 748.6,72.7 748.7,72.7 748.7,72.7 748.7,72.7 748.7,72.7 748.7,72.7 748.7,72.7 748.7,72.7 748.7,72.7 748.8,72.7 748.8,72.7 748.8,72.7 748.8,72.7 748.8,72.7 748.8,72.7 748.8,72.7 748.8,72.7 748.8,72.7 748.8,72.7 748.8,72.7 748.9,72.7 748.9,72.7 748.9,72.7 748.9,72.7 748.9,72.7 748.9,72.7 748.9,72.7 748.9,72.7 748.9,72.7 748.9,72.7 748.9,72.7 748.9,72.7 748.9,72.7 748.9,72.7 748.9,72.7 748.9,72.7 748.9,72.7 748.9,72.7 749.0,72.7 749.0,72.7 749.0,72.7 749.0,72.7 749.0,72.7 749.0,72.7 749.0,72.7 749.0,72.7 749.0,72.7 749.0,72.7 749.1,72.7 749.1,72.7 749.1,72.7 749.1,72.7 749.1,72.7 749.1,72.7 749.1,72.7 749.1,72.7 749.1,72.7 749.1,72.7 749.2,72.7 749.2,72.7 749.2,72.7 749.2,72.7 749.2,72.7 749.2,72.7 749.2,72.7 749.2,72.7 749.2,72.7 749.2,72.7 749.2,72.7 749.3,72.7 749.3,72.7 749.3,72.7 749.3,72.7 749.3,72.7 749.3,72.7 749.3,72.7 749.3,72.7 749.3,72.7 749.3,72.7 749.4,72.7 749.4,72.7 749.4,72.7 749.4,72.7 749.4,72.7 749.4,72.7 749.4,72.7 749.4,72.7 749.4,72.7 749.4,72.7 749.4,72.7 749.4,72.7 749.5,72.7 749.5,72.7 749.5,72.7 749.5,72.7 749.5,72.7 749.5,72.7 749.5,72.7 749.5,72.7 749.5,72.7 749.5,72.7 749.5,72.7 749.5,72.7 749.5,72.7 749.5,72.7 749.5,72.7 749.5,72.7 749.5,72.7 749.5,72.7 749.5,72.7 749.5,72.7 749.6,72.7 749.6,72.7 749.6,72.7 749.6,72.7 749.6,72.7 749.6,72.7 749.6,72.7 749.6,72.7 749.6,72.7 749.6,72.7 749.6,72.7 749.6,72.7 749.6,72.7 749.7,72.7 749.7,72.7 749.7,72.7 749.7,72.7 749.7,72.7 749.7,72.7 749.7,72.7 749.7,72.7 749.7,72.7 749.7,72.7 749.7,72.7 749.7,72.7 749.7,72.7 749.7,72.7 749.7,72.7 749.7,72.7 749.7,72.7 749.8,72.7 749.8,72.7 749.8,72.7 749.8,72.7 749.8,72.7 749.8,72.7 749.8,72.7 749.8,72.7 749.8,72.7 749.8,72.7 749.8,72.7 749.8,72.7 749.9,72.7 749.9,72.7 749.9,72.7 749.9,72.7 749.9,72.7 749.9,72.7 749.9,72.7 749.9,72.7 749.9,72.7 749.9,72.7 749.9,72.7 749.9,72.7 749.9,72.7 749.9,72.7 749.9,72.7 749.9,72.7 749.9,72.7 750.0,72.7 750.0,72.7 750.0,72.7 750.0,72.7 750.0,72.7 750.0,72.7 750.0,72.7" fill="none" stroke="#1f7a5a" stroke-width="3" stroke-linejoin="round" stroke-linecap="round" />
    <polyline points="72.0,378.0 72.1,192.1 112.0,192.1 112.2,192.1 112.4,192.1 112.6,192.1 112.6,192.1 113.0,192.1 113.4,192.1 113.5,192.1 113.7,192.1 114.0,192.1 114.1,192.1 114.1,192.1 114.1,192.1 114.2,192.1 114.2,192.1 114.2,192.1 114.2,192.1 114.2,192.1 114.2,192.1 114.2,192.1 114.2,192.1 114.2,192.1 114.5,192.1 114.6,192.1 114.7,192.1 114.7,192.1 114.7,192.1 114.7,192.1 114.7,192.1 114.9,192.1 115.4,192.1 115.9,192.1 115.9,192.1 116.0,192.1 116.0,192.1 116.0,192.1 116.0,192.1 116.0,192.1 116.1,192.1 116.1,192.1 116.1,192.1 116.1,192.1 116.1,192.1 116.2,192.1 116.2,192.1 116.2,192.1 116.5,192.1 116.5,192.1 135.1,192.1 135.1,192.1 135.3,192.1 234.2,192.1 234.4,192.1 234.7,192.1 235.4,192.1 235.8,192.1 236.6,192.1 237.4,192.1 319.6,192.1 718.5,192.1 718.9,128.8 725.6,128.8 726.3,128.8 726.4,128.8 726.4,128.8 726.7,128.8 726.9,128.8 727.0,128.8 727.5,128.8 727.5,128.8 727.5,128.8 727.6,128.8 727.6,128.8 727.6,128.8 727.6,128.8 727.6,128.8 727.7,128.8 727.7,128.8 727.8,128.8 727.8,128.8 727.8,128.8 727.8,128.8 727.8,128.8 727.9,128.8 727.9,128.8 727.9,128.8 727.9,128.8 727.9,128.8 728.0,128.8 728.0,128.8 728.1,128.8 728.1,128.8 728.1,128.8 728.1,128.8 728.1,128.8 728.1,128.8 728.1,128.8 728.1,128.8 728.1,128.8 728.1,128.8 728.2,128.8 728.2,128.8 728.2,128.8 728.2,128.8 728.2,128.8 728.2,128.8 728.2,128.8 728.2,128.8 728.2,128.8 728.2,111.5 728.2,111.5 728.6,111.5 728.7,83.0 728.8,83.0 728.8,83.0 728.8,83.0 728.8,83.0 728.8,83.0 728.8,83.0 728.9,83.0 728.9,83.0 729.0,83.0 729.0,83.0 729.0,83.0 729.0,83.0 729.1,83.0 729.1,83.0 729.1,83.0 729.1,83.0 729.1,83.0 729.1,83.0 729.1,83.0 729.2,83.0 729.2,83.0 729.2,83.0 729.2,83.0 729.3,83.0 729.3,83.0 729.3,83.0 729.3,83.0 729.3,83.0 729.4,83.0 729.4,83.0 729.4,74.6 729.4,74.6 729.4,74.6 729.5,74.6 729.6,74.6 729.6,74.6 730.4,74.6 735.5,74.6 735.5,74.6 735.5,74.6 735.5,74.6 735.5,74.6 735.5,74.6 735.5,74.6 735.5,74.6 735.5,74.6 735.5,74.6 735.5,74.6 735.5,74.6 735.6,74.6 735.6,74.6 735.6,74.6 735.6,74.6 735.6,74.6 735.6,74.6 735.6,74.6 735.6,74.6 735.6,74.6 735.6,74.6 735.7,74.6 735.7,74.6 735.7,74.6 735.7,74.6 735.7,74.6 735.7,74.6 735.7,74.6 735.7,74.6 735.7,74.6 735.7,74.6 735.7,74.6 735.7,74.6 735.7,74.6 735.7,74.6 735.7,74.6 735.7,74.6 735.7,74.6 735.7,74.6 735.7,74.6 735.7,74.6 735.7,74.6 735.7,74.6 735.7,74.6 735.8,74.6 735.8,74.6 735.8,74.6 735.8,74.6 735.8,74.6 735.8,74.6 735.8,74.6 735.8,74.6 735.8,74.6 735.8,74.6 735.8,74.6 735.8,74.6 735.8,74.6 735.9,74.6 735.9,74.6 735.9,74.6 735.9,74.6 735.9,74.6 735.9,74.6 735.9,74.6 735.9,74.6 735.9,74.6 747.6,74.6 747.6,74.6 747.6,74.6 747.6,74.6 747.6,74.6 747.6,74.6 747.6,74.6 747.6,74.6 747.6,74.6 747.6,74.6 747.6,74.6 747.6,74.6 747.6,74.6 747.6,74.6 747.6,74.6 747.6,74.6 747.6,74.6 747.6,74.6 747.6,74.6 747.6,74.6 747.6,74.6 747.6,74.6 747.6,74.6 747.6,74.6 747.6,74.6 747.6,74.6 747.6,74.6 747.6,74.6 747.6,74.6 747.6,74.6 747.7,74.6 747.7,74.6 747.7,74.6 747.7,74.6 747.7,74.6 747.7,74.6 747.8,74.6 747.8,74.6 747.8,74.6 747.8,74.6 747.8,74.6 747.8,74.6 747.8,74.6 747.8,74.6 747.8,74.6 747.8,74.6 747.8,74.6 747.8,74.6 747.9,74.6 747.9,74.6 747.9,74.6 747.9,74.6 747.9,74.6 747.9,74.6 747.9,74.6 747.9,74.6 747.9,74.6 747.9,74.6 748.0,74.6 748.0,74.6 748.0,74.6 748.0,74.6 748.0,74.6 748.1,74.6 748.1,74.6 748.1,74.6 748.1,74.6 748.1,74.6 748.1,74.6 748.1,74.6 748.1,74.6 748.1,74.6 748.1,74.6 748.1,74.6 748.1,74.6 748.1,74.6 748.2,74.6 748.2,74.6 748.2,74.6 748.2,74.6 748.2,74.6 748.2,74.6 748.2,74.6 748.2,74.6 748.2,74.6 748.2,74.6 748.2,74.6 748.3,74.6 748.3,74.6 748.3,74.6 748.3,74.6 748.3,74.6 748.3,74.6 748.3,74.6 748.3,74.6 748.3,74.6 748.3,74.6 748.3,74.6 748.3,74.6 748.3,74.6 748.3,74.6 748.4,74.6 748.4,74.6 748.4,74.6 748.4,74.6 748.4,74.6 748.4,74.6 748.4,74.6 748.4,74.6 748.4,74.6 748.4,74.6 748.4,74.6 748.4,74.6 748.4,74.6 748.4,74.6 748.4,74.6 748.4,74.6 748.5,74.6 748.5,74.6 748.5,74.6 748.5,74.6 748.5,74.6 748.5,74.6 748.5,74.6 748.5,74.6 748.5,74.6 748.5,74.6 748.5,74.6 748.6,74.6 748.6,74.6 748.6,74.6 748.6,74.6 748.6,74.6 748.6,74.6 748.6,74.6 748.6,74.6 748.6,74.6 748.6,74.6 748.6,74.6 748.6,74.6 748.6,74.6 748.6,74.6 748.7,74.6 748.7,74.6 748.7,74.6 748.7,74.6 748.7,74.6 748.7,74.6 748.7,74.6 748.7,74.6 748.8,74.6 748.8,74.6 748.8,74.6 748.8,74.6 748.8,74.6 748.8,74.6 748.8,74.6 748.8,74.6 748.8,74.6 748.8,74.6 748.8,74.6 748.9,74.6 748.9,74.6 748.9,74.6 748.9,74.6 748.9,74.6 748.9,74.6 748.9,74.6 748.9,74.6 748.9,74.6 748.9,74.6 748.9,74.6 748.9,74.6 748.9,74.6 748.9,74.6 748.9,74.6 748.9,74.6 748.9,74.6 748.9,74.6 749.0,74.6 749.0,74.6 749.0,74.6 749.0,74.6 749.0,74.6 749.0,74.6 749.0,74.6 749.0,74.6 749.0,74.6 749.0,74.6 749.1,74.6 749.1,74.6 749.1,74.6 749.1,74.6 749.1,74.6 749.1,74.6 749.1,74.6 749.1,74.6 749.1,74.6 749.1,74.6 749.2,74.6 749.2,74.6 749.2,74.6 749.2,74.6 749.2,74.6 749.2,74.6 749.2,74.6 749.2,74.6 749.2,74.6 749.2,74.6 749.2,74.6 749.3,74.6 749.3,74.6 749.3,74.6 749.3,74.6 749.3,74.6 749.3,74.6 749.3,74.6 749.3,74.6 749.3,74.6 749.3,74.6 749.4,74.6 749.4,74.6 749.4,74.6 749.4,74.6 749.4,74.6 749.4,74.6 749.4,74.6 749.4,74.6 749.4,74.6 749.4,74.6 749.4,74.6 749.4,74.6 749.5,74.6 749.5,74.6 749.5,74.6 749.5,74.6 749.5,74.6 749.5,74.6 749.5,74.6 749.5,74.6 749.5,74.6 749.5,74.6 749.5,74.6 749.5,74.6 749.5,74.6 749.5,74.6 749.5,74.6 749.5,74.6 749.5,74.6 749.5,74.6 749.5,74.6 749.5,74.6 749.6,74.6 749.6,74.6 749.6,74.6 749.6,74.6 749.6,74.6 749.6,74.6 749.6,74.6 749.6,74.6 749.6,74.6 749.6,74.6 749.6,74.6 749.6,74.6 749.6,74.6 749.7,74.6 749.7,74.6 749.7,74.6 749.7,74.6 749.7,74.6 749.7,74.6 749.7,74.6 749.7,74.6 749.7,74.6 749.7,74.6 749.7,74.6 749.7,74.6 749.7,74.6 749.7,74.6 749.7,74.6 749.7,74.6 749.7,74.6 749.8,74.6 749.8,74.6 749.8,74.6 749.8,74.6 749.8,74.6 749.8,74.6 749.8,74.6 749.8,74.6 749.8,74.6 749.8,74.6 749.8,74.6 749.8,74.6 749.9,74.6 749.9,74.6 749.9,74.6 749.9,74.6 749.9,74.6 749.9,74.6 749.9,74.6 749.9,74.6 749.9,74.6 749.9,74.6 749.9,74.6 749.9,74.6 749.9,74.6 749.9,74.6 749.9,74.6 749.9,74.6 749.9,74.6 750.0,74.6 750.0,74.6 750.0,74.6 750.0,74.6 750.0,74.6 750.0,74.6 750.0,74.6" fill="none" stroke="#145a96" stroke-width="3" stroke-linejoin="round" stroke-linecap="round" />
    <polyline points="72.0,378.0 72.1,378.0 112.0,378.0 112.2,378.0 112.4,378.0 112.6,378.0 112.6,378.0 113.0,378.0 113.4,378.0 113.5,378.0 113.7,378.0 114.0,378.0 114.1,378.0 114.1,378.0 114.1,378.0 114.2,378.0 114.2,378.0 114.2,378.0 114.2,378.0 114.2,378.0 114.2,378.0 114.2,378.0 114.2,378.0 114.2,378.0 114.5,378.0 114.6,378.0 114.7,378.0 114.7,378.0 114.7,378.0 114.7,378.0 114.7,378.0 114.9,378.0 115.4,378.0 115.9,378.0 115.9,378.0 116.0,378.0 116.0,378.0 116.0,378.0 116.0,378.0 116.0,378.0 116.1,378.0 116.1,378.0 116.1,378.0 116.1,378.0 116.1,378.0 116.2,378.0 116.2,378.0 116.2,378.0 116.5,378.0 116.5,378.0 135.1,378.0 135.1,378.0 135.3,378.0 234.2,378.0 234.4,378.0 234.7,378.0 235.4,378.0 235.8,378.0 236.6,378.0 237.4,378.0 319.6,378.0 718.5,378.0 718.9,378.0 725.6,378.0 726.3,378.0 726.4,378.0 726.4,378.0 726.7,378.0 726.9,378.0 727.0,378.0 727.5,378.0 727.5,378.0 727.5,378.0 727.6,378.0 727.6,378.0 727.6,378.0 727.6,378.0 727.6,378.0 727.7,378.0 727.7,378.0 727.8,378.0 727.8,378.0 727.8,378.0 727.8,378.0 727.8,378.0 727.9,378.0 727.9,378.0 727.9,378.0 727.9,378.0 727.9,378.0 728.0,378.0 728.0,378.0 728.1,378.0 728.1,378.0 728.1,378.0 728.1,378.0 728.1,378.0 728.1,378.0 728.1,378.0 728.1,378.0 728.1,378.0 728.1,378.0 728.2,378.0 728.2,378.0 728.2,378.0 728.2,378.0 728.2,378.0 728.2,378.0 728.2,378.0 728.2,378.0 728.2,378.0 728.2,378.0 728.2,378.0 728.6,378.0 728.7,378.0 728.8,378.0 728.8,378.0 728.8,378.0 728.8,378.0 728.8,378.0 728.8,378.0 728.9,378.0 728.9,378.0 729.0,378.0 729.0,378.0 729.0,378.0 729.0,378.0 729.1,378.0 729.1,378.0 729.1,378.0 729.1,378.0 729.1,378.0 729.1,378.0 729.1,378.0 729.2,378.0 729.2,378.0 729.2,378.0 729.2,378.0 729.3,378.0 729.3,378.0 729.3,378.0 729.3,378.0 729.3,378.0 729.4,378.0 729.4,378.0 729.4,378.0 729.4,378.0 729.4,378.0 729.5,378.0 729.6,378.0 729.6,378.0 730.4,378.0 735.5,377.0 735.5,377.0 735.5,376.9 735.5,376.8 735.5,376.7 735.5,376.7 735.5,376.6 735.5,376.3 735.5,375.7 735.5,375.0 735.5,375.0 735.5,374.7 735.6,374.5 735.6,374.2 735.6,373.8 735.6,373.0 735.6,372.2 735.6,372.1 735.6,370.9 735.6,370.8 735.6,370.6 735.6,370.6 735.7,369.6 735.7,369.6 735.7,369.6 735.7,369.6 735.7,369.5 735.7,368.7 735.7,368.7 735.7,368.7 735.7,368.6 735.7,368.2 735.7,367.8 735.7,367.7 735.7,367.7 735.7,367.7 735.7,367.6 735.7,367.6 735.7,367.5 735.7,366.8 735.7,366.7 735.7,366.7 735.7,366.2 735.7,366.1 735.7,365.4 735.8,364.4 735.8,363.3 735.8,363.2 735.8,362.7 735.8,361.9 735.8,361.8 735.8,361.3 735.8,360.8 735.8,359.7 735.8,359.6 735.8,359.4 735.8,359.3 735.8,358.0 735.9,357.3 735.9,355.8 735.9,355.1 735.9,355.0 735.9,354.7 735.9,353.2 735.9,352.0 735.9,351.1 735.9,351.0 747.6,345.5 747.6,344.4 747.6,344.0 747.6,343.3 747.6,343.2 747.6,343.2 747.6,343.2 747.6,343.1 747.6,342.6 747.6,342.4 747.6,342.3 747.6,342.3 747.6,342.3 747.6,341.9 747.6,341.7 747.6,341.6 747.6,341.6 747.6,341.6 747.6,341.6 747.6,341.5 747.6,341.2 747.6,341.0 747.6,341.0 747.6,341.0 747.6,341.0 747.6,340.7 747.6,340.4 747.6,338.9 747.6,338.3 747.6,336.5 747.7,336.0 747.7,335.9 747.7,324.4 747.7,323.0 747.7,322.7 747.7,322.7 747.8,322.4 747.8,322.2 747.8,321.6 747.8,305.7 747.8,304.1 747.8,303.4 747.8,303.0 747.8,302.9 747.8,302.7 747.8,301.7 747.8,301.2 747.8,296.8 747.9,290.5 747.9,290.3 747.9,289.9 747.9,289.0 747.9,287.8 747.9,287.6 747.9,286.9 747.9,286.5 747.9,285.8 747.9,285.5 748.0,285.1 748.0,284.9 748.0,284.2 748.0,283.5 748.0,267.1 748.1,266.2 748.1,265.5 748.1,265.2 748.1,265.1 748.1,264.3 748.1,264.3 748.1,263.6 748.1,262.7 748.1,262.4 748.1,262.4 748.1,262.3 748.1,260.8 748.1,260.1 748.2,259.7 748.2,259.1 748.2,259.1 748.2,258.8 748.2,257.7 748.2,257.5 748.2,257.3 748.2,256.8 748.2,256.1 748.2,255.9 748.2,255.7 748.3,254.7 748.3,254.4 748.3,254.4 748.3,253.9 748.3,253.6 748.3,253.0 748.3,252.8 748.3,252.7 748.3,252.0 748.3,251.6 748.3,251.3 748.3,250.7 748.3,250.3 748.3,249.6 748.4,248.9 748.4,247.9 748.4,247.8 748.4,246.1 748.4,246.0 748.4,244.3 748.4,243.1 748.4,242.4 748.4,241.4 748.4,239.8 748.4,239.7 748.4,237.9 748.4,237.6 748.4,235.7 748.4,234.5 748.4,234.3 748.5,233.2 748.5,232.8 748.5,231.0 748.5,229.2 748.5,229.0 748.5,227.4 748.5,225.7 748.5,225.5 748.5,224.6 748.5,223.9 748.5,223.6 748.6,223.3 748.6,222.2 748.6,220.4 748.6,220.3 748.6,220.1 748.6,219.2 748.6,218.3 748.6,217.7 748.6,216.0 748.6,215.2 748.6,215.1 748.6,215.0 748.6,214.3 748.6,214.1 748.7,213.6 748.7,213.0 748.7,212.8 748.7,212.6 748.7,211.7 748.7,211.5 748.7,210.8 748.7,209.5 748.8,207.9 748.8,207.5 748.8,206.9 748.8,206.6 748.8,205.8 748.8,204.1 748.8,204.0 748.8,203.6 748.8,203.6 748.8,202.5 748.8,201.8 748.9,201.0 748.9,199.6 748.9,198.7 748.9,198.4 748.9,197.3 748.9,191.3 748.9,190.5 748.9,190.3 748.9,189.7 748.9,187.9 748.9,187.4 748.9,187.2 748.9,186.6 748.9,186.1 748.9,185.3 748.9,185.1 748.9,184.9 748.9,181.4 749.0,180.6 749.0,179.7 749.0,179.5 749.0,179.4 749.0,179.0 749.0,178.4 749.0,176.7 749.0,176.3 749.0,176.1 749.0,175.3 749.1,174.8 749.1,174.1 749.1,172.3 749.1,171.7 749.1,171.6 749.1,171.2 749.1,171.1 749.1,170.9 749.1,170.1 749.1,169.0 749.2,168.9 749.2,168.7 749.2,167.9 749.2,167.3 749.2,164.9 749.2,164.7 749.2,164.6 749.2,163.6 749.2,163.3 749.2,162.4 749.2,162.3 749.3,161.1 749.3,160.4 749.3,160.1 749.3,160.1 749.3,159.2 749.3,157.9 749.3,155.0 749.3,155.0 749.3,154.7 749.3,154.0 749.4,154.0 749.4,152.2 749.4,150.4 749.4,149.7 749.4,149.5 749.4,149.3 749.4,148.3 749.4,147.9 749.4,147.2 749.4,147.0 749.4,146.2 749.4,144.4 749.5,143.6 749.5,143.3 749.5,142.9 749.5,142.7 749.5,142.5 749.5,141.5 749.5,140.6 749.5,139.6 749.5,139.6 749.5,139.6 749.5,138.9 749.5,135.3 749.5,134.9 749.5,134.9 749.5,134.9 749.5,134.5 749.5,134.3 749.5,133.6 749.5,133.6 749.5,133.0 749.6,131.9 749.6,131.8 749.6,131.2 749.6,130.7 749.6,130.3 749.6,129.8 749.6,128.7 749.6,128.2 749.6,128.2 749.6,127.6 749.6,127.2 749.6,126.7 749.6,126.0 749.7,125.8 749.7,125.4 749.7,124.8 749.7,124.5 749.7,124.2 749.7,123.9 749.7,123.9 749.7,122.3 749.7,122.0 749.7,121.9 749.7,121.3 749.7,120.9 749.7,120.3 749.7,113.1 749.7,112.4 749.7,112.4 749.7,112.3 749.8,111.6 749.8,111.0 749.8,109.9 749.8,109.4 749.8,107.6 749.8,106.7 749.8,105.6 749.8,104.6 749.8,104.4 749.8,103.9 749.8,103.5 749.8,102.8 749.9,101.8 749.9,100.0 749.9,100.0 749.9,99.7 749.9,98.5 749.9,98.5 749.9,98.3 749.9,97.0 749.9,96.8 749.9,95.9 749.9,88.7 749.9,88.1 749.9,87.8 749.9,87.3 749.9,85.6 749.9,85.3 749.9,81.7 750.0,78.5 750.0,76.9 750.0,76.7 750.0,75.9 750.0,75.2 750.0,74.5 750.0,74.5" fill="none" stroke="#9b2f2f" stroke-width="3" stroke-linejoin="round" stroke-linecap="round" />
  </g>

    <g transform="translate(778, 66)">
      <rect width="14" height="14" fill="#1f7a5a" rx="2" />
      <text x="22" y="12" font-size="13" fill="#24313d">Received by wallet</text>
    </g>
    <g transform="translate(778, 94)">
      <rect width="14" height="14" fill="#145a96" rx="2" />
      <text x="22" y="12" font-size="13" fill="#24313d">Deposited to Aave</text>
    </g>
    <g transform="translate(778, 122)">
      <rect width="14" height="14" fill="#9b2f2f" rx="2" />
      <text x="22" y="12" font-size="13" fill="#24313d">Collateral liquidated</text>
    </g>
</svg>
