<svg xmlns="http://www.w3.org/2000/svg" width="920" height="440" viewBox="0 0 920 440" role="img" aria-label="CRV borrowed, transferred out, and liquidated">
  <rect width="920" height="440" fill="#ffffff" />
  <text x="72" y="26" font-family="Inter, Arial, sans-serif" font-size="20" font-weight="700" fill="#17202a">CRV borrowed, transferred out, and liquidated</text>
  <g font-family="Inter, Arial, sans-serif" font-size="12" fill="#5d6d7e">
    <g>
      <line x1="72" x2="750" y1="378.0" y2="378.0" stroke="#d6dbdf" />
      <text x="62" y="382.0" text-anchor="end">0</text>
    </g>
    <g>
      <line x1="72" x2="750" y1="294.5" y2="294.5" stroke="#d6dbdf" />
      <text x="62" y="298.5" text-anchor="end">25</text>
    </g>
    <g>
      <line x1="72" x2="750" y1="211.0" y2="211.0" stroke="#d6dbdf" />
      <text x="62" y="215.0" text-anchor="end">50</text>
    </g>
    <g>
      <line x1="72" x2="750" y1="127.5" y2="127.5" stroke="#d6dbdf" />
      <text x="62" y="131.5" text-anchor="end">75</text>
    </g>
    <g>
      <line x1="72" x2="750" y1="44.0" y2="44.0" stroke="#d6dbdf" />
      <text x="62" y="48.0" text-anchor="end">100</text>
    </g>
    <line x1="72" x2="72" y1="44" y2="378" stroke="#9aa5ad" />
    <line x1="72" x2="750" y1="378" y2="378" stroke="#9aa5ad" />
    <text x="72.0" y="406" text-anchor="middle">11-14 06:06</text>
    <text x="411.0" y="406" text-anchor="middle">11-18 12:08</text>
    <text x="750.0" y="406" text-anchor="middle">11-22 18:09</text>
    <text x="411" y="424" text-anchor="middle">UTC date and hour</text>
    <text transform="translate(18 211) rotate(-90)" text-anchor="middle">Cumulative CRV, millions</text>
  </g>
  <g>
    <polyline points="72.0,374.7 72.2,374.7 72.5,374.7 72.6,374.7 72.8,374.7 72.9,374.7 73.0,371.3 73.2,371.3 73.7,371.3 73.8,371.3 74.0,371.3 74.4,371.3 74.4,371.3 74.4,371.3 74.5,371.3 74.5,371.3 74.5,371.3 74.5,371.3 74.5,371.3 74.5,371.3 74.5,371.3 74.5,371.3 74.5,371.3 74.5,371.3 74.8,364.6 74.9,364.6 75.0,364.6 75.0,364.6 75.0,364.6 75.0,364.6 75.1,364.6 75.1,364.6 75.2,364.6 75.8,364.6 76.4,364.6 76.4,364.6 76.4,364.6 76.4,364.6 76.4,364.6 76.4,364.6 76.5,364.6 76.6,364.6 76.6,364.6 76.6,364.6 76.6,364.6 76.6,364.6 76.6,364.6 76.7,364.6 76.7,364.6 76.9,364.6 77.0,364.6 96.7,364.6 96.7,364.6 97.0,364.6 201.9,358.0 202.0,358.0 202.2,358.0 202.5,358.0 203.3,358.0 203.8,358.0 204.6,358.0 205.5,358.0 219.9,358.0 291.9,351.3 292.1,351.3 292.7,344.6 292.8,344.6 304.9,337.9 304.9,337.9 525.6,337.9 530.7,321.2 530.8,321.2 599.1,321.2 707.4,254.4 707.5,254.4 713.5,254.4 717.2,221.0 717.3,221.0 722.0,120.8 722.1,120.8 723.8,104.1 724.0,104.1 724.9,104.1 724.9,104.1 724.9,104.1 725.2,104.1 725.4,104.1 725.5,87.4 725.5,87.4 726.1,87.4 726.1,87.4 726.1,87.4 726.2,87.4 726.2,87.4 726.2,87.4 726.2,87.4 726.2,87.4 726.3,87.4 726.4,87.4 726.4,87.4 726.4,87.4 726.4,87.4 726.4,87.4 726.5,87.4 726.5,87.4 726.5,87.4 726.6,87.4 726.6,87.4 726.6,87.4 726.6,87.4 726.6,87.4 726.7,87.4 726.7,87.4 726.7,87.4 726.7,87.4 726.8,87.4 726.8,87.4 726.8,87.4 726.8,87.4 726.8,87.4 726.8,87.4 726.8,87.4 726.8,87.4 726.8,87.4 726.8,87.4 726.8,87.4 726.8,87.4 726.8,87.4 726.8,87.4 726.8,87.4 726.8,87.4 726.9,70.7 727.5,70.7 727.5,70.7 727.5,70.7 727.5,70.7 727.5,70.7 727.5,70.7 727.6,70.7 727.6,70.7 727.6,70.7 727.7,70.7 727.7,70.7 727.7,70.7 727.7,70.7 727.7,70.7 727.8,70.7 727.8,70.7 727.8,70.7 727.8,70.7 727.8,70.7 727.9,70.7 727.9,70.7 727.9,70.7 727.9,70.7 728.0,70.7 728.0,70.7 728.0,70.7 728.0,70.7 728.0,70.7 728.1,70.7 728.1,70.7 728.1,70.7 728.1,70.7 728.3,70.7 728.3,70.7 728.3,70.7 729.2,70.7 734.6,70.7 734.6,70.7 734.6,70.7 734.6,70.7 734.6,70.7 734.6,70.7 734.6,70.7 734.6,70.7 734.6,70.7 734.6,70.7 734.6,70.7 734.6,70.7 734.7,70.7 734.7,70.7 734.7,70.7 734.7,70.7 734.7,70.7 734.7,70.7 734.7,70.7 734.7,70.7 734.7,70.7 734.7,70.7 734.8,70.7 734.8,70.7 734.8,70.7 734.8,70.7 734.8,70.7 734.8,70.7 734.8,70.7 734.8,70.7 734.8,70.7 734.8,70.7 734.8,70.7 734.8,70.7 734.8,70.7 734.8,70.7 734.8,70.7 734.8,70.7 734.8,70.7 734.8,70.7 734.8,70.7 734.8,70.7 734.8,70.7 734.8,70.7 734.9,70.7 734.9,70.7 734.9,70.7 734.9,70.7 734.9,70.7 734.9,70.7 734.9,70.7 734.9,70.7 734.9,70.7 734.9,70.7 734.9,70.7 734.9,70.7 734.9,70.7 735.0,70.7 735.0,70.7 735.0,70.7 735.0,70.7 735.0,70.7 735.0,70.7 735.0,70.7 735.0,70.7 735.0,70.7 735.0,70.7 747.4,70.7 747.4,70.7 747.4,70.7 747.4,70.7 747.4,70.7 747.4,70.7 747.4,70.7 747.4,70.7 747.5,70.7 747.5,70.7 747.5,70.7 747.5,70.7 747.5,70.7 747.5,70.7 747.5,70.7 747.5,70.7 747.5,70.7 747.5,70.7 747.5,70.7 747.5,70.7 747.5,70.7 747.5,70.7 747.5,70.7 747.5,70.7 747.5,70.7 747.5,70.7 747.5,70.7 747.5,70.7 747.5,70.7 747.5,70.7 747.5,70.7 747.5,70.7 747.5,70.7 747.6,70.7 747.6,70.7 747.6,70.7 747.6,70.7 747.6,70.7 747.6,70.7 747.6,70.7 747.6,70.7 747.7,70.7 747.7,70.7 747.7,70.7 747.7,70.7 747.7,70.7 747.7,70.7 747.7,70.7 747.7,70.7 747.8,70.7 747.8,70.7 747.8,70.7 747.8,70.7 747.8,70.7 747.8,70.7 747.8,70.7 747.8,70.7 747.8,70.7 747.8,70.7 747.9,70.7 747.9,70.7 747.9,70.7 747.9,70.7 747.9,70.7 747.9,70.7 747.9,70.7 748.0,70.7 748.0,70.7 748.0,70.7 748.0,70.7 748.0,70.7 748.0,70.7 748.0,70.7 748.0,70.7 748.0,70.7 748.0,70.7 748.0,70.7 748.0,70.7 748.1,70.7 748.1,70.7 748.1,70.7 748.1,70.7 748.1,70.7 748.1,70.7 748.1,70.7 748.1,70.7 748.1,70.7 748.2,70.7 748.2,70.7 748.2,70.7 748.2,70.7 748.2,70.7 748.2,70.7 748.2,70.7 748.2,70.7 748.2,70.7 748.2,70.7 748.2,70.7 748.2,70.7 748.2,70.7 748.2,70.7 748.2,70.7 748.3,70.7 748.3,70.7 748.3,70.7 748.3,70.7 748.3,70.7 748.3,70.7 748.3,70.7 748.3,70.7 748.3,70.7 748.3,70.7 748.3,70.7 748.3,70.7 748.3,70.7 748.3,70.7 748.3,70.7 748.4,70.7 748.4,70.7 748.4,70.7 748.4,70.7 748.4,70.7 748.4,70.7 748.4,70.7 748.4,70.7 748.4,70.7 748.4,70.7 748.4,70.7 748.5,70.7 748.5,70.7 748.5,70.7 748.5,70.7 748.5,70.7 748.5,70.7 748.5,70.7 748.5,70.7 748.5,70.7 748.5,70.7 748.5,70.7 748.5,70.7 748.5,70.7 748.5,70.7 748.6,70.7 748.6,70.7 748.6,70.7 748.6,70.7 748.6,70.7 748.6,70.7 748.6,70.7 748.6,70.7 748.7,70.7 748.7,70.7 748.7,70.7 748.7,70.7 748.7,70.7 748.7,70.7 748.7,70.7 748.7,70.7 748.7,70.7 748.8,70.7 748.8,70.7 748.8,70.7 748.8,70.7 748.8,70.7 748.8,70.7 748.8,70.7 748.8,70.7 748.8,70.7 748.8,70.7 748.8,70.7 748.8,70.7 748.8,70.7 748.8,70.7 748.9,70.7 748.9,70.7 748.9,70.7 748.9,70.7 748.9,70.7 748.9,70.7 748.9,70.7 748.9,70.7 748.9,70.7 748.9,70.7 748.9,70.7 748.9,70.7 748.9,70.7 749.0,70.7 749.0,70.7 749.0,70.7 749.0,70.7 749.0,70.7 749.0,70.7 749.0,70.7 749.0,70.7 749.0,70.7 749.0,70.7 749.1,70.7 749.1,70.7 749.1,70.7 749.1,70.7 749.1,70.7 749.1,70.7 749.1,70.7 749.2,70.7 749.2,70.7 749.2,70.7 749.2,70.7 749.2,70.7 749.2,70.7 749.2,70.7 749.2,70.7 749.2,70.7 749.2,70.7 749.2,70.7 749.2,70.7 749.3,70.7 749.3,70.7 749.3,70.7 749.3,70.7 749.3,70.7 749.3,70.7 749.3,70.7 749.3,70.7 749.3,70.7 749.3,70.7 749.3,70.7 749.3,70.7 749.4,70.7 749.4,70.7 749.4,70.7 749.4,70.7 749.4,70.7 749.4,70.7 749.4,70.7 749.4,70.7 749.4,70.7 749.4,70.7 749.4,70.7 749.4,70.7 749.5,70.7 749.5,70.7 749.5,70.7 749.5,70.7 749.5,70.7 749.5,70.7 749.5,70.7 749.5,70.7 749.5,70.7 749.5,70.7 749.5,70.7 749.5,70.7 749.5,70.7 749.5,70.7 749.5,70.7 749.5,70.7 749.6,70.7 749.6,70.7 749.6,70.7 749.6,70.7 749.6,70.7 749.6,70.7 749.6,70.7 749.6,70.7 749.6,70.7 749.6,70.7 749.6,70.7 749.6,70.7 749.6,70.7 749.7,70.7 749.7,70.7 749.7,70.7 749.7,70.7 749.7,70.7 749.7,70.7 749.7,70.7 749.7,70.7 749.7,70.7 749.7,70.7 749.7,70.7 749.7,70.7 749.7,70.7 749.7,70.7 749.7,70.7 749.7,70.7 749.8,70.7 749.8,70.7 749.8,70.7 749.8,70.7 749.8,70.7 749.8,70.7 749.8,70.7 749.8,70.7 749.8,70.7 749.8,70.7 749.8,70.7 749.8,70.7 749.9,70.7 749.9,70.7 749.9,70.7 749.9,70.7 749.9,70.7 749.9,70.7 749.9,70.7 749.9,70.7 749.9,70.7 749.9,70.7 749.9,70.7 749.9,70.7 749.9,70.7 749.9,70.7 749.9,70.7 750.0,70.7 750.0,70.7 750.0,70.7 750.0,70.7 750.0,70.7 750.0,70.7 750.0,70.7" fill="none" stroke="#145a96" stroke-width="3" stroke-linejoin="round" stroke-linecap="round" />
    <polyline points="72.0,378.0 72.2,377.7 72.5,377.3 72.6,376.7 72.8,375.9 72.9,375.2 73.0,375.2 73.2,374.5 73.7,373.8 73.8,373.2 74.0,372.8 74.4,372.7 74.4,372.7 74.4,372.6 74.5,372.5 74.5,372.2 74.5,372.0 74.5,372.0 74.5,371.8 74.5,371.8 74.5,371.6 74.5,371.5 74.5,371.4 74.5,371.3 74.8,371.3 74.9,371.0 75.0,370.8 75.0,370.7 75.0,370.7 75.0,370.4 75.1,370.3 75.1,370.2 75.2,370.1 75.8,370.0 76.4,370.0 76.4,369.8 76.4,369.7 76.4,369.6 76.4,369.5 76.4,369.4 76.5,368.8 76.6,368.6 76.6,368.5 76.6,368.4 76.6,368.4 76.6,368.3 76.6,368.2 76.7,367.8 76.7,367.7 76.9,367.7 77.0,367.6 96.7,367.0 96.7,366.3 97.0,365.6 201.9,365.6 202.0,364.6 202.2,363.0 202.5,362.5 203.3,361.8 203.8,361.5 204.6,360.8 205.5,360.5 219.9,358.8 291.9,358.8 292.1,351.3 292.7,351.3 292.8,350.6 304.9,350.6 304.9,344.6 525.6,337.9 530.7,337.9 530.8,327.9 599.1,321.2 707.4,321.2 707.5,287.8 713.5,254.4 717.2,254.4 717.3,221.0 722.0,221.0 722.1,120.8 723.8,120.8 724.0,119.8 724.9,118.1 724.9,116.5 724.9,114.8 725.2,111.5 725.4,108.1 725.5,108.1 725.5,104.8 726.1,104.1 726.1,104.0 726.1,103.7 726.2,103.6 726.2,102.4 726.2,101.8 726.2,101.6 726.2,101.5 726.3,100.8 726.4,100.4 726.4,100.1 726.4,99.8 726.4,99.7 726.4,99.5 726.5,98.7 726.5,98.5 726.5,98.2 726.6,97.5 726.6,96.7 726.6,96.4 726.6,95.9 726.6,94.6 726.7,94.0 726.7,93.7 726.7,93.3 726.7,93.1 726.8,92.3 726.8,92.1 726.8,91.3 726.8,91.1 726.8,90.8 726.8,89.0 726.8,89.0 726.8,88.7 726.8,88.5 726.8,88.4 726.8,87.9 726.8,87.5 726.8,87.5 726.8,87.5 726.8,87.5 726.8,87.4 726.9,87.4 727.5,86.7 727.5,86.7 727.5,86.5 727.5,86.3 727.5,86.1 727.5,86.0 727.6,85.8 727.6,85.4 727.6,85.0 727.7,84.9 727.7,84.7 727.7,84.5 727.7,84.5 727.7,84.5 727.8,82.7 727.8,82.5 727.8,82.5 727.8,81.5 727.8,80.7 727.9,80.6 727.9,80.4 727.9,79.5 727.9,79.4 728.0,78.8 728.0,78.6 728.0,78.2 728.0,74.3 728.0,73.7 728.1,71.9 728.1,71.7 728.1,71.6 728.1,71.3 728.3,71.2 728.3,70.7 728.3,70.7 729.2,70.7 734.6,70.7 734.6,70.7 734.6,70.7 734.6,70.7 734.6,70.7 734.6,70.7 734.6,70.7 734.6,70.7 734.6,70.7 734.6,70.7 734.6,70.7 734.6,70.7 734.7,70.7 734.7,70.7 734.7,70.7 734.7,70.7 734.7,70.7 734.7,70.7 734.7,70.7 734.7,70.7 734.7,70.7 734.7,70.7 734.8,70.7 734.8,70.7 734.8,70.7 734.8,70.7 734.8,70.7 734.8,70.7 734.8,70.7 734.8,70.7 734.8,70.7 734.8,70.7 734.8,70.7 734.8,70.7 734.8,70.7 734.8,70.7 734.8,70.7 734.8,70.7 734.8,70.7 734.8,70.7 734.8,70.7 734.8,70.7 734.8,70.7 734.8,70.7 734.9,70.7 734.9,70.7 734.9,70.7 734.9,70.7 734.9,70.7 734.9,70.7 734.9,70.7 734.9,70.7 734.9,70.7 734.9,70.7 734.9,70.7 734.9,70.7 734.9,70.7 735.0,70.7 735.0,70.7 735.0,70.7 735.0,70.7 735.0,70.7 735.0,70.7 735.0,70.7 735.0,70.7 735.0,70.7 735.0,70.7 747.4,70.7 747.4,70.7 747.4,70.7 747.4,70.7 747.4,70.7 747.4,70.7 747.4,70.7 747.4,70.7 747.5,70.7 747.5,70.7 747.5,70.7 747.5,70.7 747.5,70.7 747.5,70.7 747.5,70.7 747.5,70.7 747.5,70.7 747.5,70.7 747.5,70.7 747.5,70.7 747.5,70.7 747.5,70.7 747.5,70.7 747.5,70.7 747.5,70.7 747.5,70.7 747.5,70.7 747.5,70.7 747.5,70.7 747.5,70.7 747.5,70.7 747.5,70.7 747.5,70.7 747.6,70.7 747.6,70.7 747.6,70.7 747.6,70.7 747.6,70.7 747.6,70.7 747.6,70.7 747.6,70.7 747.7,70.7 747.7,70.7 747.7,70.7 747.7,70.7 747.7,70.7 747.7,70.7 747.7,70.7 747.7,70.7 747.8,70.7 747.8,70.7 747.8,70.7 747.8,70.7 747.8,70.7 747.8,70.7 747.8,70.7 747.8,70.7 747.8,70.7 747.8,70.7 747.9,70.7 747.9,70.7 747.9,70.7 747.9,70.7 747.9,70.7 747.9,70.7 747.9,70.7 748.0,70.7 748.0,70.7 748.0,70.7 748.0,70.7 748.0,70.7 748.0,70.7 748.0,70.7 748.0,70.7 748.0,70.7 748.0,70.7 748.0,70.7 748.0,70.7 748.1,70.7 748.1,70.7 748.1,70.7 748.1,70.7 748.1,70.7 748.1,70.7 748.1,70.7 748.1,70.7 748.1,70.7 748.2,70.7 748.2,70.7 748.2,70.7 748.2,70.7 748.2,70.7 748.2,70.7 748.2,70.7 748.2,70.7 748.2,70.7 748.2,70.7 748.2,70.7 748.2,70.7 748.2,70.7 748.2,70.7 748.2,70.7 748.3,70.7 748.3,70.7 748.3,70.7 748.3,70.7 748.3,70.7 748.3,70.7 748.3,70.7 748.3,70.7 748.3,70.7 748.3,70.7 748.3,70.7 748.3,70.7 748.3,70.7 748.3,70.7 748.3,70.7 748.4,70.7 748.4,70.7 748.4,70.7 748.4,70.7 748.4,70.7 748.4,70.7 748.4,70.7 748.4,70.7 748.4,70.7 748.4,70.7 748.4,70.7 748.5,70.7 748.5,70.7 748.5,70.7 748.5,70.7 748.5,70.7 748.5,70.7 748.5,70.7 748.5,70.7 748.5,70.7 748.5,70.7 748.5,70.7 748.5,70.7 748.5,70.7 748.5,70.7 748.6,70.7 748.6,70.7 748.6,70.7 748.6,70.7 748.6,70.7 748.6,70.7 748.6,70.7 748.6,70.7 748.7,70.7 748.7,70.7 748.7,70.7 748.7,70.7 748.7,70.7 748.7,70.7 748.7,70.7 748.7,70.7 748.7,70.7 748.8,70.7 748.8,70.7 748.8,70.7 748.8,70.7 748.8,70.7 748.8,70.7 748.8,70.7 748.8,70.7 748.8,70.7 748.8,70.7 748.8,70.7 748.8,70.7 748.8,70.7 748.8,70.7 748.9,70.7 748.9,70.7 748.9,70.7 748.9,70.7 748.9,70.7 748.9,70.7 748.9,70.7 748.9,70.7 748.9,70.7 748.9,70.7 748.9,70.7 748.9,70.7 748.9,70.7 749.0,70.7 749.0,70.7 749.0,70.7 749.0,70.7 749.0,70.7 749.0,70.7 749.0,70.7 749.0,70.7 749.0,70.7 749.0,70.7 749.1,70.7 749.1,70.7 749.1,70.7 749.1,70.7 749.1,70.7 749.1,70.7 749.1,70.7 749.2,70.7 749.2,70.7 749.2,70.7 749.2,70.7 749.2,70.7 749.2,70.7 749.2,70.7 749.2,70.7 749.2,70.7 749.2,70.7 749.2,70.7 749.2,70.7 749.3,70.7 749.3,70.7 749.3,70.7 749.3,70.7 749.3,70.7 749.3,70.7 749.3,70.7 749.3,70.7 749.3,70.7 749.3,70.7 749.3,70.7 749.3,70.7 749.4,70.7 749.4,70.7 749.4,70.7 749.4,70.7 749.4,70.7 749.4,70.7 749.4,70.7 749.4,70.7 749.4,70.7 749.4,70.7 749.4,70.7 749.4,70.7 749.5,70.7 749.5,70.7 749.5,70.7 749.5,70.7 749.5,70.7 749.5,70.7 749.5,70.7 749.5,70.7 749.5,70.7 749.5,70.7 749.5,70.7 749.5,70.7 749.5,70.7 749.5,70.7 749.5,70.7 749.5,70.7 749.6,70.7 749.6,70.7 749.6,70.7 749.6,70.7 749.6,70.7 749.6,70.7 749.6,70.7 749.6,70.7 749.6,70.7 749.6,70.7 749.6,70.7 749.6,70.7 749.6,70.7 749.7,70.7 749.7,70.7 749.7,70.7 749.7,70.7 749.7,70.7 749.7,70.7 749.7,70.7 749.7,70.7 749.7,70.7 749.7,70.7 749.7,70.7 749.7,70.7 749.7,70.7 749.7,70.7 749.7,70.7 749.7,70.7 749.8,70.7 749.8,70.7 749.8,70.7 749.8,70.7 749.8,70.7 749.8,70.7 749.8,70.7 749.8,70.7 749.8,70.7 749.8,70.7 749.8,70.7 749.8,70.7 749.9,70.7 749.9,70.7 749.9,70.7 749.9,70.7 749.9,70.7 749.9,70.7 749.9,70.7 749.9,70.7 749.9,70.7 749.9,70.7 749.9,70.7 749.9,70.7 749.9,70.7 749.9,70.7 749.9,70.7 750.0,70.7 750.0,70.7 750.0,70.7 750.0,70.7 750.0,70.7 750.0,70.7 750.0,70.7" fill="none" stroke="#9a5a00" stroke-width="3" stroke-linejoin="round" stroke-linecap="round" />
    <polyline points="72.0,378.0 72.2,378.0 72.5,378.0 72.6,378.0 72.8,378.0 72.9,378.0 73.0,378.0 73.2,378.0 73.7,378.0 73.8,378.0 74.0,378.0 74.4,378.0 74.4,378.0 74.4,378.0 74.5,378.0 74.5,378.0 74.5,378.0 74.5,378.0 74.5,378.0 74.5,378.0 74.5,378.0 74.5,378.0 74.5,378.0 74.5,378.0 74.8,378.0 74.9,378.0 75.0,378.0 75.0,378.0 75.0,378.0 75.0,378.0 75.1,378.0 75.1,378.0 75.2,378.0 75.8,378.0 76.4,378.0 76.4,378.0 76.4,378.0 76.4,378.0 76.4,378.0 76.4,378.0 76.5,378.0 76.6,378.0 76.6,378.0 76.6,378.0 76.6,378.0 76.6,378.0 76.6,378.0 76.7,378.0 76.7,378.0 76.9,378.0 77.0,378.0 96.7,378.0 96.7,378.0 97.0,378.0 201.9,378.0 202.0,378.0 202.2,378.0 202.5,378.0 203.3,378.0 203.8,378.0 204.6,378.0 205.5,378.0 219.9,378.0 291.9,378.0 292.1,378.0 292.7,378.0 292.8,378.0 304.9,378.0 304.9,378.0 525.6,378.0 530.7,378.0 530.8,378.0 599.1,378.0 707.4,378.0 707.5,378.0 713.5,378.0 717.2,378.0 717.3,378.0 722.0,378.0 722.1,378.0 723.8,378.0 724.0,378.0 724.9,378.0 724.9,378.0 724.9,378.0 725.2,378.0 725.4,378.0 725.5,378.0 725.5,378.0 726.1,378.0 726.1,378.0 726.1,378.0 726.2,378.0 726.2,378.0 726.2,378.0 726.2,378.0 726.2,378.0 726.3,378.0 726.4,378.0 726.4,378.0 726.4,378.0 726.4,378.0 726.4,378.0 726.5,378.0 726.5,378.0 726.5,378.0 726.6,378.0 726.6,378.0 726.6,378.0 726.6,378.0 726.6,378.0 726.7,378.0 726.7,378.0 726.7,378.0 726.7,378.0 726.8,378.0 726.8,378.0 726.8,378.0 726.8,378.0 726.8,378.0 726.8,378.0 726.8,378.0 726.8,378.0 726.8,378.0 726.8,378.0 726.8,378.0 726.8,378.0 726.8,378.0 726.8,378.0 726.8,378.0 726.8,378.0 726.9,378.0 727.5,378.0 727.5,378.0 727.5,378.0 727.5,378.0 727.5,378.0 727.5,378.0 727.6,378.0 727.6,378.0 727.6,378.0 727.7,378.0 727.7,378.0 727.7,378.0 727.7,378.0 727.7,378.0 727.8,378.0 727.8,378.0 727.8,378.0 727.8,378.0 727.8,378.0 727.9,378.0 727.9,378.0 727.9,378.0 727.9,378.0 728.0,378.0 728.0,378.0 728.0,378.0 728.0,378.0 728.0,378.0 728.1,378.0 728.1,378.0 728.1,378.0 728.1,378.0 728.3,378.0 728.3,378.0 728.3,378.0 729.2,378.0 734.6,376.9 734.6,376.9 734.6,376.8 734.6,376.7 734.6,376.6 734.6,376.6 734.6,376.5 734.6,376.2 734.6,375.5 734.6,374.8 734.6,374.7 734.6,374.4 734.7,374.3 734.7,373.9 734.7,373.5 734.7,372.6 734.7,371.7 734.7,371.6 734.7,370.4 734.7,370.3 734.7,370.0 734.7,370.0 734.8,369.0 734.8,368.9 734.8,368.9 734.8,368.9 734.8,368.8 734.8,368.0 734.8,367.9 734.8,367.9 734.8,367.9 734.8,367.4 734.8,367.0 734.8,366.9 734.8,366.9 734.8,366.8 734.8,366.8 734.8,366.7 734.8,366.7 734.8,365.9 734.8,365.8 734.8,365.8 734.8,365.2 734.8,365.2 734.9,364.4 734.9,363.3 734.9,362.2 734.9,362.0 734.9,361.5 734.9,360.7 734.9,360.6 734.9,360.0 734.9,359.4 734.9,358.2 734.9,358.2 734.9,358.0 734.9,357.8 735.0,356.4 735.0,355.7 735.0,354.0 735.0,353.3 735.0,353.2 735.0,352.8 735.0,351.2 735.0,349.9 735.0,349.0 735.0,348.9 747.4,343.0 747.4,341.7 747.4,341.3 747.4,340.5 747.4,340.4 747.4,340.4 747.4,340.4 747.4,340.3 747.5,339.8 747.5,339.6 747.5,339.5 747.5,339.5 747.5,339.5 747.5,339.0 747.5,338.8 747.5,338.7 747.5,338.7 747.5,338.7 747.5,338.7 747.5,338.6 747.5,338.3 747.5,338.1 747.5,338.1 747.5,338.1 747.5,338.1 747.5,337.8 747.5,337.5 747.5,335.8 747.5,335.2 747.5,333.2 747.5,332.7 747.5,332.5 747.5,320.2 747.6,318.7 747.6,318.3 747.6,318.3 747.6,318.1 747.6,317.9 747.6,317.2 747.6,300.5 747.6,298.8 747.7,298.1 747.7,297.7 747.7,297.5 747.7,297.4 747.7,296.3 747.7,295.8 747.7,291.1 747.7,284.4 747.8,284.1 747.8,283.8 747.8,282.8 747.8,281.5 747.8,281.4 747.8,280.7 747.8,280.3 747.8,279.5 747.8,279.2 747.8,278.8 747.9,278.6 747.9,277.9 747.9,277.2 747.9,260.5 747.9,259.6 747.9,259.0 747.9,258.7 748.0,258.5 748.0,257.8 748.0,257.7 748.0,257.0 748.0,256.1 748.0,255.8 748.0,255.8 748.0,255.8 748.0,254.3 748.0,253.6 748.0,253.2 748.0,252.5 748.1,252.5 748.1,252.2 748.1,251.1 748.1,251.0 748.1,250.8 748.1,250.3 748.1,249.6 748.1,249.4 748.1,249.3 748.2,248.2 748.2,248.0 748.2,248.0 748.2,247.6 748.2,247.2 748.2,246.7 748.2,246.5 748.2,246.4 748.2,245.7 748.2,245.4 748.2,245.1 748.2,244.5 748.2,244.1 748.2,243.5 748.2,242.8 748.3,241.8 748.3,241.7 748.3,240.2 748.3,240.0 748.3,238.4 748.3,237.3 748.3,236.6 748.3,235.6 748.3,234.2 748.3,234.0 748.3,232.3 748.3,232.0 748.3,230.2 748.3,229.1 748.3,228.9 748.4,227.9 748.4,227.4 748.4,225.8 748.4,224.1 748.4,223.8 748.4,222.4 748.4,220.8 748.4,220.5 748.4,219.7 748.4,219.1 748.4,218.8 748.5,218.4 748.5,217.4 748.5,215.7 748.5,215.6 748.5,215.4 748.5,214.5 748.5,213.6 748.5,213.1 748.5,211.5 748.5,210.8 748.5,210.6 748.5,210.5 748.5,209.8 748.5,209.7 748.6,209.3 748.6,208.7 748.6,208.5 748.6,208.3 748.6,207.4 748.6,207.3 748.6,206.5 748.6,205.4 748.7,203.8 748.7,203.4 748.7,202.8 748.7,202.6 748.7,201.8 748.7,200.2 748.7,200.1 748.7,199.7 748.7,199.7 748.8,198.7 748.8,198.0 748.8,197.3 748.8,195.9 748.8,195.1 748.8,194.8 748.8,193.7 748.8,188.0 748.8,187.3 748.8,187.1 748.8,186.5 748.8,184.8 748.8,184.3 748.8,184.1 748.9,183.6 748.9,183.1 748.9,182.3 748.9,182.1 748.9,181.9 748.9,178.6 748.9,177.8 748.9,177.0 748.9,176.8 748.9,176.7 748.9,176.3 748.9,175.8 748.9,174.1 749.0,173.7 749.0,173.6 749.0,172.8 749.0,172.3 749.0,171.7 749.0,170.0 749.0,169.4 749.0,169.3 749.0,168.9 749.0,168.8 749.1,168.6 749.1,167.9 749.1,166.8 749.1,166.8 749.1,166.5 749.1,165.7 749.1,165.2 749.2,162.9 749.2,162.8 749.2,162.6 749.2,161.7 749.2,161.5 749.2,160.6 749.2,160.5 749.2,159.4 749.2,158.7 749.2,158.5 749.2,158.4 749.2,157.6 749.3,156.5 749.3,153.7 749.3,153.7 749.3,153.5 749.3,152.8 749.3,152.8 749.3,151.1 749.3,149.5 749.3,148.8 749.3,148.6 749.3,148.5 749.3,147.5 749.4,147.2 749.4,146.5 749.4,146.3 749.4,145.6 749.4,143.9 749.4,143.2 749.4,142.9 749.4,142.5 749.4,142.4 749.4,142.2 749.4,141.3 749.4,140.4 749.5,139.5 749.5,139.5 749.5,139.4 749.5,138.8 749.5,135.4 749.5,135.1 749.5,135.1 749.5,135.1 749.5,134.8 749.5,134.6 749.5,133.9 749.5,133.9 749.5,133.3 749.5,132.4 749.5,132.2 749.5,131.6 749.6,131.2 749.6,130.9 749.6,130.4 749.6,129.4 749.6,128.9 749.6,128.9 749.6,128.4 749.6,128.0 749.6,127.5 749.6,126.9 749.6,126.7 749.6,126.3 749.6,125.8 749.7,125.5 749.7,125.2 749.7,125.0 749.7,124.9 749.7,123.5 749.7,123.1 749.7,123.1 749.7,122.6 749.7,122.1 749.7,121.6 749.7,114.9 749.7,114.3 749.7,114.2 749.7,114.2 749.7,113.6 749.7,113.0 749.8,112.0 749.8,111.5 749.8,109.8 749.8,109.0 749.8,107.9 749.8,107.0 749.8,106.9 749.8,106.4 749.8,106.0 749.8,105.4 749.8,104.5 749.8,102.8 749.9,102.8 749.9,102.5 749.9,101.4 749.9,101.4 749.9,101.2 749.9,100.0 749.9,99.8 749.9,99.0 749.9,92.3 749.9,91.8 749.9,91.4 749.9,91.0 749.9,89.4 749.9,89.1 749.9,85.8 750.0,82.7 750.0,81.2 750.0,81.0 750.0,80.3 750.0,79.5 750.0,78.9 750.0,78.9" fill="none" stroke="#9b2f2f" stroke-width="3" stroke-linejoin="round" stroke-linecap="round" />
  </g>

    <g transform="translate(778, 66)">
      <rect width="14" height="14" fill="#145a96" rx="2" />
      <text x="22" y="12" font-size="13" fill="#24313d">Borrowed</text>
    </g>
    <g transform="translate(778, 94)">
      <rect width="14" height="14" fill="#9a5a00" rx="2" />
      <text x="22" y="12" font-size="13" fill="#24313d">Transferred out</text>
    </g>
    <g transform="translate(778, 122)">
      <rect width="14" height="14" fill="#9b2f2f" rx="2" />
      <text x="22" y="12" font-size="13" fill="#24313d">Liquidated debt</text>
    </g>
</svg>
